<svg width="72.000000" height="72.000000" viewBox="0 0 72 72" fill="none" xmlns="http://www.w3.org/2000/svg" xmlns:xlink="http://www.w3.org/1999/xlink">    <desc>        Created with Pixso.    </desc>    <defs>        <clipPath id="clip40_203">            <rect id="secure" rx="-0.500000" width="71.000000" height="71.000000" transform="translate(0.500000 0.500000)" fill="white" fill-opacity="0"/>        </clipPath>    </defs>    <rect id="secure" rx="-0.500000" width="71.000000" height="71.000000" transform="translate(0.500000 0.500000)" fill="#FFFFFF" fill-opacity="0"/>    <g clip-path="url(#clip40_203)">        <path id="Vector" d="M8.33 55.24C8.33 41.41 1.16 31.91 1.16 25.24C1.16 18.58 5 4.58 35.66 4.58C66.33 4.58 70.83 23.41 70.83 30.74C70.83 65.08 8.33 79.74 8.33 55.24Z" fill="#ECEFF2" fill-opacity="1.000000" fill-rule="nonzero"/>        <path id="Vector" d="M53.25 16.5L55.25 16.5L55.25 20.5L53.25 20.5L53.25 16.5Z" fill="#C2C8CD" fill-opacity="1.000000" fill-rule="nonzero"/>        <path id="Vector" d="M57.75 22.5L61.75 22.5L61.75 24.5L57.75 24.5L57.75 22.5Z" fill="#C2C8CD" fill-opacity="1.000000" fill-rule="nonzero"/>        <path id="Vector" d="M42.5 48.64L42.5 17.5C42.5 15.29 40.71 13.5 38.5 13.5L17.5 13.5C15.28 13.5 13.5 15.29 13.5 17.5L13.5 48.64C13.5 50.85 15.28 52.64 17.5 52.64L38.5 52.64C40.71 52.64 42.5 50.85 42.5 48.64Z" fill="#F3F3F1" fill-opacity="1.000000" fill-rule="nonzero"/>        <path id="Vector" d="M48 58.5C48 58.5 58.5 54.03 58.5 45.1C58.5 41.53 58.5 37.07 58.5 37.07L48 33.5L37.5 37.07L37.5 45.1C37.5 54.03 48 58.5 48 58.5Z" fill="#2A6CEA" fill-opacity="1.000000" fill-rule="nonzero"/>        <path id="Vector" d="M18 48.64L18 17.5C18 15.29 19.78 13.5 22 13.5L17.5 13.5C15.28 13.5 13.5 15.29 13.5 17.5L13.5 48.64C13.5 50.85 15.28 52.64 17.5 52.64L22 52.64C19.78 52.64 18 50.85 18 48.64Z" fill="#E1E6EA" fill-opacity="1.000000" fill-rule="nonzero"/>        <path id="Vector" d="M42 45.1C42 39.75 42 37.07 42 37.07L50.25 34.26L48 33.5L37.5 37.07L37.5 45.1C37.5 54.03 48 58.5 48 58.5C48 58.5 48.94 58.09 50.25 57.3C47.16 55.43 42 51.37 42 45.1Z" fill="#191C1F" fill-opacity="0.100000" fill-rule="nonzero"/>        <path id="Vector" d="M30.5 54L17.5 54C14.46 54 12 51.53 12 48.5L12 17.5C12 14.46 14.46 12 17.5 12L38.5 12C41.53 12 44 14.46 44 17.5L44 28.5L41 28.5L41 17.5C41 16.12 39.87 15 38.5 15L17.5 15C16.12 15 15 16.12 15 17.5L15 48.5C15 49.87 16.12 51 17.5 51L30.5 51L30.5 54Z" fill="#191C1F" fill-opacity="1.000000" fill-rule="nonzero"/>        <path id="Vector" d="M20.55 37.55L18.43 35.43L23.43 30.43C23.91 29.95 24.65 29.86 25.24 30.19L27.78 31.65L33.48 26.39L35.51 28.6L29.01 34.6C28.53 35.04 27.82 35.12 27.25 34.8L24.75 33.37L20.55 37.55Z" fill="#191C1F" fill-opacity="1.000000" fill-rule="nonzero"/>        <path id="Vector" d="M36 34L33 34L33 29L28 29L28 26L34.5 26C35.32 26 36 26.67 36 27.5L36 34Z" fill="#191C1F" fill-opacity="1.000000" fill-rule="nonzero"/>        <path id="Vector" d="M47.5 50.99C47.1 50.99 46.71 50.84 46.43 50.55L42.43 46.55L44.56 44.43L47.33 47.21L52.29 40.59L54.69 42.39L48.69 50.39C48.43 50.74 48.03 50.96 47.6 50.99C47.57 50.99 47.53 50.99 47.5 50.99Z" fill="#FFFFFF" fill-opacity="1.000000" fill-rule="nonzero"/>    </g></svg>