<svg width="24.000000" height="24.000000" viewBox="0 0 24 24" fill="none" xmlns="http://www.w3.org/2000/svg" xmlns:xlink="http://www.w3.org/1999/xlink">
    <defs>
        <clipPath id="clip40_271">
            <rect id="fi-sr-plus-small" rx="-0.500000" width="23.000000" height="23.000000" transform="translate(0.500000 0.500000)" fill="white" fill-opacity="0"/>
        </clipPath>
    </defs>
    <g clip-path="url(#clip40_271)">
        <path id="Vector" d="M17 11L13 11L13 7C13 6.73 12.89 6.48 12.7 6.29C12.51 6.1 12.26 6 12 6C11.73 6 11.48 6.1 11.29 6.29C11.1 6.48 11 6.73 11 7L11 11L7 11C6.73 11 6.48 11.1 6.29 11.29C6.1 11.48 6 11.73 6 12C6 12.26 6.1 12.51 6.29 12.7C6.48 12.89 6.73 13 7 13L11 13L11 17C11 17.26 11.1 17.51 11.29 17.7C11.48 17.89 11.73 18 12 18C12.26 18 12.51 17.89 12.7 17.7C12.89 17.51 13 17.26 13 17L13 13L17 13C17.26 13 17.51 12.89 17.7 12.7C17.89 12.51 18 12.26 18 12C18 11.73 17.89 11.48 17.7 11.29C17.51 11.1 17.26 11 17 11Z" fill="#191C1F" fill-opacity="1.000000" fill-rule="nonzero"/>
    </g>
    <circle id="Ellipse 22" cx="12.000000" cy="12.000000" r="11.000000" stroke="#191C1F" stroke-opacity="1.000000" stroke-width="2.000000"/>
</svg>
